<?xml version="1.0" encoding="UTF-8" standalone="no"?>
<svg
   xmlns:dc="http://purl.org/dc/elements/1.1/"
   xmlns:cc="http://creativecommons.org/ns#"
   xmlns:rdf="http://www.w3.org/1999/02/22-rdf-syntax-ns#"
   xmlns:svg="http://www.w3.org/2000/svg"
   xmlns="http://www.w3.org/2000/svg"
   xmlns:sodipodi="http://sodipodi.sourceforge.net/DTD/sodipodi-0.dtd"
   xmlns:inkscape="http://www.inkscape.org/namespaces/inkscape"
   sodipodi:docname="icon.svg"
   inkscape:version="1.0 (4035a4fb49, 2020-05-01)"
   id="svg8"
   version="1.1"
   viewBox="0 0 32.003185 31.829239"
   height="31.829239mm"
   width="32.003185mm">
  <defs
     id="defs2" />
  <sodipodi:namedview
     fit-margin-bottom="0"
     fit-margin-right="0"
     fit-margin-left="0"
     fit-margin-top="0"
     inkscape:window-maximized="0"
     inkscape:window-y="163"
     inkscape:window-x="208"
     inkscape:window-height="1198"
     inkscape:window-width="1881"
     showgrid="false"
     inkscape:document-rotation="0"
     inkscape:current-layer="layer1"
     inkscape:document-units="mm"
     inkscape:cy="69.422234"
     inkscape:cx="11.297291"
     inkscape:zoom="2.8"
     inkscape:pageshadow="2"
     inkscape:pageopacity="0.0"
     borderopacity="1.0"
     bordercolor="#666666"
     pagecolor="#ffffff"
     id="base" />
  <metadata
     id="metadata5">
    <rdf:RDF>
      <cc:Work
         rdf:about="">
        <dc:format>image/svg+xml</dc:format>
        <dc:type
           rdf:resource="http://purl.org/dc/dcmitype/StillImage" />
        <dc:title></dc:title>
      </cc:Work>
    </rdf:RDF>
  </metadata>
  <g
     transform="translate(-91.449173,-128.06201)"
     id="layer1"
     inkscape:groupmode="layer"
     inkscape:label="Layer 1">
    <circle
       r="11.528275"
       cy="142.20374"
       cx="105.77633"
       id="path831"
       style="fill:#000080;stroke:#000000;stroke-width:1;stroke-miterlimit:4;stroke-dasharray:none" />
    <path
       d="m 107.65132,158.36399 c -3.04817,-5.36043 -5.33082,-11.11079 -8.268975,-16.52899 -1.621622,-3.41109 -2.942007,-7.00553 -5.151734,-10.1005 -1.308742,-0.51442 -0.720315,-2.58941 -2.254553,-2.90361 -0.323714,-0.80949 2.38041,0.4576 3.387683,0.6939 5.710999,2.34394 10.633389,6.13409 15.703469,9.57007 2.20889,1.25693 4.64156,2.04663 7.0744,2.74281 1.29438,0.91285 3.11517,1.13543 4.50182,2.18129 1.05142,0.9359 -0.90172,-0.31768 -1.17623,0.44666 -2.24083,0.70468 -4.82787,-0.52846 -6.85706,0.75004 -1.77866,1.37043 -4.11883,2.84369 -4.21626,5.24257 -1.33754,0.94248 -0.70164,2.43944 -2.02376,3.59492 -0.107,1.43571 -0.51956,2.87205 -0.7188,4.31084 z"
       style="fill:#ffffff;stroke:#000000;stroke-width:1;stroke-linecap:butt;stroke-linejoin:miter;stroke-miterlimit:4;stroke-dasharray:none;stroke-opacity:1"
       id="path20" />
    <path
       d="m 95.148872,137.90843 c -0.893603,0.50282 -0.892541,1.97067 -1.384634,2.90596 -0.435045,1.2664 -0.944796,2.86589 -0.04367,4.04662 1.116501,1.09052 2.835451,1.3346 4.333301,1.14135 1.539145,-0.20614 2.643901,-1.38917 3.894661,-2.1902 1.09271,-0.81532 2.34393,-1.42484 3.239,-2.48149 0.68694,-0.73015 1.40075,-1.44486 2.1764,-2.07071 0.65656,-1.06195 -0.47624,-2.00565 -1.00018,-2.8235 -0.28889,-0.34139 -1.5162,-1.177 -0.39439,-0.82215 2.01204,0.24043 3.90021,-0.6929 5.82039,-1.11715 0.8286,-0.57013 2.22686,-0.78822 2.31451,0.55478 0.55394,1.6307 0.27296,3.58071 1.46306,4.95766 1.06415,1.3223 2.25138,2.57406 2.95947,4.14018 0.29915,0.51406 -0.9847,-0.34433 -1.39817,-0.30935 -1.15545,-0.31655 -2.38553,-0.54013 -3.36893,-1.2706 -0.72001,-0.16513 -1.26091,-1.81832 -1.88962,-0.56159 -1.5064,1.25008 -2.64629,2.93378 -4.40182,3.8786 -1.88876,1.00968 -3.89225,1.89805 -6.0161,2.25474 -1.0991,0.10477 -2.224666,0.0975 -3.316758,-0.007 -1.323687,-0.34451 -2.423889,-1.22234 -3.690274,-1.67275 -0.868701,-0.66149 -0.956174,-1.89727 -1.186118,-2.88417"
       style="fill:#cccccc;stroke:#000000;stroke-width:1;stroke-linecap:butt;stroke-linejoin:miter;stroke-miterlimit:4;stroke-dasharray:none;stroke-opacity:1"
       id="path833" />
  </g>
</svg>
