<?xml version="1.0" encoding="UTF-8" standalone="no"?>
<svg
   xmlns:dc="http://purl.org/dc/elements/1.1/"
   xmlns:cc="http://creativecommons.org/ns#"
   xmlns:rdf="http://www.w3.org/1999/02/22-rdf-syntax-ns#"
   xmlns:svg="http://www.w3.org/2000/svg"
   xmlns="http://www.w3.org/2000/svg"
   xmlns:sodipodi="http://sodipodi.sourceforge.net/DTD/sodipodi-0.dtd"
   xmlns:inkscape="http://www.inkscape.org/namespaces/inkscape"
   sodipodi:docname="asteroid3.svg"
   inkscape:version="1.0 (4035a4fb49, 2020-05-01)"
   id="svg8"
   version="1.1"
   viewBox="0 0 57.724495 66.285331"
   height="66.285332mm"
   width="57.724495mm">
  <defs
     id="defs2" />
  <sodipodi:namedview
     inkscape:window-maximized="0"
     inkscape:window-y="78"
     inkscape:window-x="78"
     inkscape:window-height="1198"
     inkscape:window-width="1274"
     showgrid="false"
     inkscape:document-rotation="0"
     inkscape:current-layer="layer1"
     inkscape:document-units="mm"
     inkscape:cy="299.62787"
     inkscape:cx="-560.69198"
     inkscape:zoom="0.35"
     inkscape:pageshadow="2"
     inkscape:pageopacity="0.0"
     borderopacity="1.0"
     bordercolor="#666666"
     pagecolor="#ffffff"
     id="base" />
  <metadata
     id="metadata5">
    <rdf:RDF>
      <cc:Work
         rdf:about="">
        <dc:format>image/svg+xml</dc:format>
        <dc:type
           rdf:resource="http://purl.org/dc/dcmitype/StillImage" />
        <dc:title />
      </cc:Work>
    </rdf:RDF>
  </metadata>
  <g
     transform="translate(-108.66225,-68.890125)"
     id="layer1"
     inkscape:groupmode="layer"
     inkscape:label="Layer 1">
    <path
       d="m 120.98094,120.0116 c -4.60916,-3.62673 -9.27903,-7.95365 -11.02035,-13.72897 0.0348,-3.05044 5.68721,3.32905 4.89788,-0.73088 -0.26391,-4.64226 -2.8144,-8.700888 -4.71049,-12.822786 -0.96792,-1.558796 -1.91665,-4.243468 0.77291,-3.522427 2.54951,-0.284892 4.79619,0.126303 6.84725,1.70089 4.08995,1.212638 8.46051,1.312164 12.68578,1.067384 2.694,-0.730738 -0.0485,-5.903931 2.63955,-6.812746 2.85823,-1.032337 -0.95743,-4.914535 -0.16498,-7.236839 0.54168,-2.666732 -2.10658,-7.240967 0.99886,-8.523941 3.57323,-0.220538 6.09416,2.86391 8.95078,4.541918 0.7847,0.302189 4.05134,3.434846 2.48227,1.278216 3.34139,-2.167232 3.78078,3.129488 6.29875,4.480619 1.55524,2.601582 6.20736,3.878372 6.19943,6.819132 -1.60299,-0.474809 -4.17052,-4.037969 -1.15889,-1.661353 2.43084,3.159212 4.32376,6.776714 7.36824,9.440612 2.46667,1.738389 0.47409,5.092975 -0.29783,6.872101 -2.51455,-1.680134 0.32729,3.71663 -2.98045,2.81914 -1.95605,0.43015 -4.90454,-3.46628 -5.76862,-1.6643 0.27415,2.58772 2.96962,3.73796 4.30551,5.7083 1.3114,1.32131 3.96014,3.96026 5.913,5.70585 2.44737,1.69504 -2.89742,2.32641 -1.16932,4.94716 -3.09164,0.9558 -6.56263,0.4911 -9.32154,2.59525 -3.50818,0.30305 -5.7513,-3.2409 -8.96489,-4.18161 -1.19287,-0.35646 -3.51602,-1.40367 -1.13519,0.12048 3.9614,3.54044 2.6947,10.02817 7.04622,13.31603 2.31751,1.63623 -2.65281,2.33588 -3.59843,3.55888 -2.62183,1.82516 -4.82348,-1.16609 -7.07065,-2.16223 -2.38298,-0.74668 -5.2022,-1.84178 -6.86414,-3.01633 -0.6507,2.33708 -3.17827,-1.94939 -4.0996,-2.8276 -1.21422,-1.95775 -0.6335,-4.31882 -2.65547,-5.324 -0.40172,-1.42749 -2.93478,-5.12135 -3.68693,-4.15806 0.35254,1.78972 -1.29419,6.57412 -2.97873,4.11022 l 0.13535,-0.36033 z"
       style="fill:#ffffff;stroke:#000000;stroke-width:1;stroke-linecap:butt;stroke-linejoin:miter;stroke-miterlimit:4;stroke-dasharray:none;stroke-opacity:1"
       id="path47" />
  </g>
</svg>
