<?xml version="1.0" encoding="UTF-8" standalone="no"?>
<svg
   xmlns:dc="http://purl.org/dc/elements/1.1/"
   xmlns:cc="http://creativecommons.org/ns#"
   xmlns:rdf="http://www.w3.org/1999/02/22-rdf-syntax-ns#"
   xmlns:svg="http://www.w3.org/2000/svg"
   xmlns="http://www.w3.org/2000/svg"
   xmlns:sodipodi="http://sodipodi.sourceforge.net/DTD/sodipodi-0.dtd"
   xmlns:inkscape="http://www.inkscape.org/namespaces/inkscape"
   width="79.497192mm"
   height="75.360123mm"
   viewBox="0 0 79.497193 75.360122"
   version="1.1"
   id="svg8"
   inkscape:version="1.0 (4035a4fb49, 2020-05-01)"
   sodipodi:docname="asteroid1.svg">
  <defs
     id="defs2" />
  <sodipodi:namedview
     id="base"
     pagecolor="#ffffff"
     bordercolor="#666666"
     borderopacity="1.0"
     inkscape:pageopacity="0.0"
     inkscape:pageshadow="2"
     inkscape:zoom="0.35"
     inkscape:cx="-416.2124"
     inkscape:cy="197.1394"
     inkscape:document-units="mm"
     inkscape:current-layer="layer1"
     inkscape:document-rotation="0"
     showgrid="false"
     fit-margin-top="0"
     fit-margin-left="0"
     fit-margin-right="0"
     fit-margin-bottom="0"
     inkscape:window-width="1274"
     inkscape:window-height="1198"
     inkscape:window-x="130"
     inkscape:window-y="130"
     inkscape:window-maximized="0" />
  <metadata
     id="metadata5">
    <rdf:RDF>
      <cc:Work
         rdf:about="">
        <dc:format>image/svg+xml</dc:format>
        <dc:type
           rdf:resource="http://purl.org/dc/dcmitype/StillImage" />
        <dc:title />
      </cc:Work>
    </rdf:RDF>
  </metadata>
  <g
     inkscape:label="Layer 1"
     inkscape:groupmode="layer"
     id="layer1"
     transform="translate(-70.435366,-96.006867)">
    <path
       id="path49"
       style="fill:#ffffff;stroke:#000000;stroke-width:1;stroke-linecap:butt;stroke-linejoin:miter;stroke-miterlimit:4;stroke-dasharray:none;stroke-opacity:1"
       d="m 91.851874,166.74779 c -7.634749,-0.006 -15.47425,-2.92178 -20.673294,-8.61381 -1.078805,-3.16213 1.646766,-7.8858 5.163832,-7.74965 5.58263,2.84221 1.983675,-4.57767 2.86711,-7.38045 2.482603,-1.98077 3.021294,-5.21401 2.625982,-8.19507 0.724636,-2.81617 -0.4085,-7.11935 3.99999,-6.59329 2.131543,-3.29248 -2.662944,-6.88327 -3.05505,-10.41564 -0.848791,-3.54821 -0.403503,-7.23265 0.197076,-10.72542 0.268912,-3.50529 -1.801665,-7.290952 0.130459,-10.565838 3.527667,0.02165 6.483381,2.61006 9.488097,4.215478 1.766208,0.80131 6.003324,6.08666 4.988393,1.00178 -0.04971,-3.988219 3.638781,-4.97607 6.335741,-2.576463 3.84107,0.504725 7.58878,-0.458265 11.07176,1.621133 4.58287,0.61717 10.21647,-3.500914 13.96413,0.90386 2.92785,2.41148 1.97866,7.83677 6.55202,8.37696 2.60409,1.45494 4.05561,3.49286 0.80084,5.03155 -1.87208,3.63454 -1.26771,7.83994 0.66053,11.27672 2.30962,2.07738 5.5345,4.09485 3.11857,7.3775 -1.00563,5.06131 3.34685,8.91148 6.67986,12.01882 2.45968,2.02387 4.60588,5.86208 -0.20454,5.49603 -3.86242,0.26515 -3.91623,6.93227 -8.54859,4.31136 -2.75755,0.32293 -8.12471,-4.71866 -7.039,0.52227 -0.49635,3.99483 -2.14979,8.17707 -0.59251,12.16445 0.74062,3.92314 -5.99936,1.77521 -8.14937,0.67311 -2.75637,-0.2414 -5.80159,-2.96834 -8.51208,-0.77651 -3.11881,0.8443 -8.25389,5.53582 -9.50318,0.21896 -0.34174,-3.22093 -2.56318,-6.2436 -5.797434,-4.22493 -3.064361,-0.0865 -3.600456,2.51527 -6.569342,2.60709 z" />
  </g>
</svg>
